# xmcd
# 
# Track frame offsets:
#     150
#     16613
#     40428
#     60656
#     82070
#     106436
#     127616
#     136721
#     155333
#     176204
#     198577
#     213675
# 
# Disc length: 3143
# 
# Revision: 0
# Processed by: cddbd v1.5.2PL0 Copyright (c) Steve Scherf et al.
# Submitted via: BonkEnc v1.0.8
# 
DISCID=a10c450c
DTITLE=Jeff Lang - Half Seas Over
DYEAR=2008
DGENRE=Blues
TTITLE0=Southern Highlands Daughter
TTITLE1=Copper Mine
TTITLE2=The Savannah Way
TTITLE3=Five Letters
TTITLE4=The House Carpenter
TTITLE5=My Mother Always Talked to Me
TTITLE6=The Vaults of Lattanzio
TTITLE7=Mooncoin
TTITLE8=Ghosting on My Mind
TTITLE9=Night Draws In
TTITLE10=Is All
TTITLE11=Newman Town
EXTD=With Grant Cummerford
EXTT0=
EXTT1=
EXTT2=
EXTT3=
EXTT4=
EXTT5=
EXTT6=
EXTT7=
EXTT8=
EXTT9=
EXTT10=
EXTT11=
PLAYORDER=
